{"glyphs":{"0":{"ha":939,"x_min":0,"x_max":0,"o":"m 461 -1 b 69 493 194 -1 69 232 b 478 988 69 790 231 988 b 869 493 756 988 869 744 b 461 -1 869 168 707 -1 m 489 261 b 617 475 572 261 617 342 b 463 726 617 556 588 726 b 322 518 371 726 322 651 b 489 261 322 388 360 261 "},"1":{"ha":728,"x_min":0,"x_max":0,"o":"m 353 17 b 304 71 321 17 304 35 l 307 701 l 303 704 b 174 601 260 668 217 635 b 124 608 154 586 138 589 l 29 733 b 40 783 14 753 22 771 l 271 954 b 329 972 288 967 308 972 l 519 972 b 561 928 547 972 561 957 l 561 71 b 511 17 561 33 543 17 l 353 17 "},"2":{"ha":824,"x_min":0,"x_max":0,"o":"m 133 1 b 82 54 100 0 82 17 l 82 203 b 113 283 82 233 93 258 b 335 532 146 326 276 465 b 419 674 385 590 419 631 b 300 750 419 728 357 750 b 131 721 240 750 183 731 b 81 750 103 715 85 725 b 69 906 74 800 69 856 b 103 956 69 929 81 946 b 325 986 149 975 226 986 b 701 721 533 986 701 924 b 417 286 701 549 549 419 l 417 279 b 693 303 510 288 613 297 b 740 263 724 304 740 290 l 738 97 b 701 44 738 68 725 46 b 133 1 533 31 335 14 "},"3":{"ha":831,"x_min":0,"x_max":0,"o":"m 219 0 b 124 3 174 0 140 1 b 83 51 96 6 82 22 l 92 213 b 143 256 93 240 111 256 b 415 276 196 256 332 254 b 478 333 456 288 478 306 b 379 390 478 385 422 390 b 206 386 326 390 300 389 b 167 425 185 386 168 394 l 160 561 b 197 601 158 588 171 600 b 433 676 347 613 433 624 b 326 742 433 719 382 742 b 147 719 244 742 221 733 b 103 742 125 715 106 724 b 85 910 92 800 86 856 b 110 947 85 929 93 942 b 360 986 183 971 264 986 b 711 731 550 986 711 899 b 614 549 711 649 668 600 l 614 540 b 761 350 713 510 761 433 b 588 83 761 256 703 147 b 219 0 474 19 335 0 "},"4":{"ha":949,"x_min":0,"x_max":0,"o":"m 514 1 b 475 44 490 -1 475 11 l 475 233 l 90 196 b 56 231 68 193 56 204 l 56 372 b 64 415 56 389 60 407 b 318 921 135 579 232 749 b 379 958 333 950 350 956 l 686 986 b 736 943 721 989 736 975 l 736 476 l 846 486 b 879 450 865 488 879 475 l 876 310 b 840 267 876 282 865 268 l 736 258 l 736 65 b 696 18 736 36 724 21 l 514 1 m 324 433 b 457 449 361 438 419 443 b 475 471 468 450 475 457 l 475 749 b 468 757 475 756 472 757 b 457 749 463 757 460 754 l 315 453 l 315 440 b 324 433 315 436 318 433 "},"5":{"ha":835,"x_min":0,"x_max":0,"o":"m 217 0 b 119 3 167 0 143 1 b 79 51 88 6 78 19 l 89 217 b 132 253 90 239 103 253 b 315 267 171 253 247 257 b 514 356 450 286 514 318 b 325 403 513 404 447 415 b 136 385 242 394 161 385 b 96 426 110 385 94 397 l 110 894 b 156 944 111 928 124 942 l 647 985 b 696 944 678 988 696 974 l 694 778 b 653 736 694 749 679 738 l 372 718 b 361 708 365 718 361 715 l 357 640 b 367 631 357 633 358 629 b 779 363 607 658 779 575 b 217 0 779 121 468 0 "},"6":{"ha":860,"x_min":0,"x_max":0,"o":"m 442 0 b 42 433 192 0 42 169 b 456 981 42 701 274 886 b 492 992 468 988 481 992 b 519 978 501 992 513 988 l 618 847 b 606 786 636 824 629 803 b 331 549 493 711 403 646 l 336 546 b 539 617 389 592 464 617 b 832 326 685 615 832 526 b 442 0 832 143 685 0 m 446 240 b 568 335 503 240 568 268 b 464 417 568 389 518 417 b 340 325 408 417 340 392 b 446 240 340 271 389 240 "},"7":{"ha":774,"x_min":0,"x_max":0,"o":"m 190 50 b 174 93 172 54 168 78 l 406 736 l 401 740 l 81 736 b 46 767 56 736 46 742 l 42 940 b 75 972 42 963 53 972 l 661 972 b 690 946 681 972 690 963 l 690 772 b 671 694 690 746 681 721 l 421 19 b 378 3 413 -1 400 -3 l 190 50 "},"8":{"ha":939,"x_min":0,"x_max":0,"o":"m 424 0 b 69 286 193 0 69 100 b 233 524 69 400 126 483 l 233 529 b 94 744 143 560 94 649 b 442 986 94 890 215 986 b 771 742 656 986 771 900 b 657 564 771 664 731 601 l 657 558 b 869 308 794 529 869 442 b 424 0 869 108 714 0 m 454 226 b 586 318 531 226 586 263 b 478 403 586 369 546 403 b 351 308 406 403 351 365 b 454 226 351 260 389 226 m 428 654 b 525 721 483 654 525 681 b 444 785 525 760 494 785 b 344 713 376 785 344 756 b 428 654 344 678 378 654 "},"9":{"ha":888,"x_min":0,"x_max":0,"o":"m 364 -6 b 336 8 354 -6 343 -1 l 240 139 b 253 199 224 161 229 183 b 529 438 365 275 461 339 l 524 440 b 321 369 471 394 396 369 b 28 660 175 371 28 460 b 418 986 28 843 175 986 b 818 553 668 986 818 817 b 400 6 818 285 582 100 b 364 -6 388 -1 375 -6 m 397 589 b 519 683 454 589 519 617 b 415 765 519 738 469 765 b 292 674 360 765 292 740 b 397 589 292 619 340 589 "}," ":{"ha":250,"x_min":0,"x_max":0,"o":""}," ":{"ha":250,"x_min":0,"x_max":0,"o":""},"A":{"ha":928,"x_min":0,"x_max":0,"o":"m 79 13 b 44 65 44 14 36 31 l 264 926 b 326 972 274 963 292 972 l 611 972 b 664 931 640 972 657 961 l 868 69 b 839 14 878 31 868 15 l 653 8 b 603 42 624 7 608 18 l 565 188 b 525 214 560 207 547 214 l 385 210 b 349 178 367 210 354 199 l 311 42 b 261 6 304 15 289 4 l 79 13 m 508 421 b 526 446 522 421 529 431 l 478 719 b 461 729 476 726 469 731 b 450 718 456 728 451 724 l 390 446 b 407 421 388 431 394 421 l 508 421 "},"a":{"ha":928,"x_min":0,"x_max":0,"o":"m 79 13 l 261 6 b 311 42 289 4 304 15 l 349 178 b 385 210 354 199 367 210 l 525 214 b 565 188 547 214 560 207 l 603 42 b 653 8 608 18 624 7 l 839 14 b 868 69 868 15 878 31 l 664 931 b 611 972 657 961 640 972 l 326 972 b 264 926 292 972 274 963 l 44 65 b 79 13 36 31 44 14 m 508 421 l 407 421 b 390 446 394 421 388 431 l 450 718 b 461 729 451 724 456 728 b 478 719 469 731 476 726 l 526 446 b 508 421 529 431 522 421 "},"B":{"ha":865,"x_min":0,"x_max":0,"o":"m 154 0 b 104 46 115 1 104 11 l 104 874 b 131 925 104 900 111 915 b 417 986 189 956 306 986 b 771 751 661 986 771 881 b 672 535 771 682 738 606 l 672 529 b 810 339 760 496 810 422 b 246 -3 810 185 644 -15 l 154 0 m 376 211 b 519 354 422 211 519 264 b 432 429 519 393 500 429 b 383 421 415 429 399 426 b 364 392 369 415 364 406 l 364 236 b 376 211 364 218 365 211 m 379 558 b 514 697 436 563 514 628 b 429 767 514 736 496 767 b 383 758 413 767 397 764 b 365 731 371 753 365 744 l 365 581 b 379 558 365 564 367 558 "},"b":{"ha":865,"x_min":0,"x_max":0,"o":"m 154 0 l 246 -3 b 810 339 644 -15 810 185 b 672 529 810 422 760 496 l 672 535 b 771 751 738 606 771 682 b 417 986 771 881 661 986 b 131 925 306 986 189 956 b 104 874 111 915 104 900 l 104 46 b 154 0 104 11 115 1 m 376 211 b 364 236 365 211 364 218 l 364 392 b 383 421 364 406 369 415 b 432 429 399 426 415 429 b 519 354 500 429 519 393 b 376 211 519 264 422 211 m 379 558 b 365 581 367 558 365 564 l 365 731 b 383 758 365 744 371 753 b 429 767 397 764 413 767 b 514 697 496 767 514 736 b 379 558 514 628 436 563 "},"C":{"ha":885,"x_min":0,"x_max":0,"o":"m 515 0 b 56 492 247 0 56 206 b 519 986 56 782 247 986 b 779 921 628 986 711 960 b 797 867 803 907 806 890 l 733 696 b 685 678 722 667 710 665 b 544 713 639 700 593 713 b 321 500 414 713 321 635 b 539 276 321 357 410 276 b 721 346 600 276 663 300 b 786 325 749 364 771 356 l 856 172 b 846 104 869 142 868 122 b 515 0 771 40 656 0 "},"c":{"ha":885,"x_min":0,"x_max":0,"o":"m 515 0 b 846 104 656 0 771 40 b 856 172 868 122 869 142 l 786 325 b 721 346 771 356 749 364 b 539 276 663 300 600 276 b 321 500 410 276 321 357 b 544 713 321 635 414 713 b 685 678 593 713 639 700 b 733 696 710 665 722 667 l 797 867 b 779 921 806 890 803 907 b 519 986 711 960 628 986 b 56 492 247 986 56 782 b 515 0 56 206 247 0 "},"D":{"ha":903,"x_min":0,"x_max":0,"o":"m 154 0 b 104 46 119 0 104 11 l 104 872 b 142 932 104 906 117 919 b 393 986 189 956 296 986 b 861 601 676 986 861 828 b 203 0 861 257 586 29 l 154 0 m 396 313 b 599 574 521 365 599 468 b 447 735 599 661 547 735 b 385 726 424 735 401 731 b 363 696 368 722 363 715 l 363 335 b 396 313 363 313 378 304 "},"d":{"ha":903,"x_min":0,"x_max":0,"o":"m 154 0 l 203 0 b 861 601 586 29 861 257 b 393 986 861 828 676 986 b 142 932 296 986 189 956 b 104 872 117 919 104 906 l 104 46 b 154 0 104 11 119 0 m 396 313 b 363 335 378 304 363 313 l 363 696 b 385 726 363 715 368 722 b 447 735 401 731 424 735 b 599 574 547 735 599 661 b 396 313 599 468 521 365 "},"E":{"ha":715,"x_min":0,"x_max":0,"o":"m 142 1 b 104 40 115 0 104 13 l 104 932 b 144 974 104 958 117 972 l 590 1004 b 628 975 617 1006 628 996 l 628 800 b 593 761 628 775 617 763 l 363 743 l 363 610 l 543 624 b 576 599 565 625 576 617 l 575 439 b 543 406 575 418 565 407 l 363 393 l 364 253 l 610 268 b 653 232 639 269 653 258 l 653 57 b 619 21 653 33 642 22 l 142 1 "},"e":{"ha":715,"x_min":0,"x_max":0,"o":"m 142 1 l 619 21 b 653 57 642 22 653 33 l 653 232 b 610 268 653 258 639 269 l 364 253 l 363 393 l 543 406 b 575 439 565 407 575 418 l 576 599 b 543 624 576 617 565 625 l 363 610 l 363 743 l 593 761 b 628 800 617 763 628 775 l 628 975 b 590 1004 628 996 617 1006 l 144 974 b 104 932 117 972 104 958 l 104 40 b 142 1 104 13 115 0 "},"F":{"ha":700,"x_min":0,"x_max":0,"o":"m 140 1 b 104 40 115 0 104 11 l 104 932 b 144 974 104 958 117 972 l 600 1004 b 638 975 626 1006 638 997 l 638 792 b 606 754 638 768 628 756 l 363 735 l 363 583 l 558 599 b 582 575 575 600 582 593 l 582 404 b 557 375 582 385 574 376 l 363 361 l 364 51 b 335 11 364 25 354 13 l 140 1 "},"f":{"ha":700,"x_min":0,"x_max":0,"o":"m 140 1 l 335 11 b 364 51 354 13 364 25 l 363 361 l 557 375 b 582 404 574 376 582 385 l 582 575 b 558 599 582 593 575 600 l 363 583 l 363 735 l 606 754 b 638 792 628 756 638 768 l 638 975 b 600 1004 638 997 626 1006 l 144 974 b 104 932 117 972 104 958 l 104 40 b 140 1 104 11 115 0 "},"G":{"ha":1046,"x_min":0,"x_max":0,"o":"m 526 0 b 56 492 247 0 56 204 b 521 986 56 782 247 986 b 781 921 628 986 711 960 b 799 869 803 908 806 889 l 733 696 b 685 678 722 667 710 665 b 544 713 639 700 593 713 b 321 499 414 713 321 635 b 528 268 321 357 417 269 b 707 399 610 267 689 310 l 593 401 b 554 439 564 401 553 413 l 563 557 b 601 594 564 583 575 594 l 946 592 b 990 546 979 592 990 579 b 526 0 990 203 792 0 "},"g":{"ha":1046,"x_min":0,"x_max":0,"o":"m 526 0 b 990 546 792 0 990 203 b 946 592 990 579 979 592 l 601 594 b 563 557 575 594 564 583 l 554 439 b 593 401 553 413 564 401 l 707 399 b 528 268 689 310 610 267 b 321 499 417 269 321 357 b 544 713 321 635 414 713 b 685 678 593 713 639 700 b 733 696 710 665 722 667 l 799 869 b 781 921 806 889 803 908 b 521 986 711 960 628 986 b 56 492 247 986 56 782 b 526 0 56 204 247 0 "},"H":{"ha":983,"x_min":0,"x_max":0,"o":"m 142 1 b 104 39 115 0 104 13 l 104 936 b 142 972 104 960 115 971 l 325 986 b 365 950 353 989 365 978 l 365 607 l 618 633 l 618 936 b 656 972 618 960 629 971 l 839 986 b 879 950 867 989 879 978 l 879 58 b 846 15 879 31 868 17 l 656 1 b 618 39 629 0 618 13 l 618 379 l 365 351 l 365 58 b 332 15 365 31 354 17 l 142 1 "},"h":{"ha":983,"x_min":0,"x_max":0,"o":"m 142 1 l 332 15 b 365 58 354 17 365 31 l 365 351 l 618 379 l 618 39 b 656 1 618 13 629 0 l 846 15 b 879 58 868 17 879 31 l 879 950 b 839 986 879 978 867 989 l 656 972 b 618 936 629 971 618 960 l 618 633 l 365 607 l 365 950 b 325 986 365 978 353 989 l 142 972 b 104 936 115 971 104 960 l 104 39 b 142 1 104 13 115 0 "},"I":{"ha":472,"x_min":0,"x_max":0,"o":"m 142 1 b 104 39 115 0 104 13 l 104 936 b 142 972 104 960 115 971 l 328 986 b 368 950 356 988 368 978 l 368 58 b 335 15 368 31 357 17 l 142 1 "},"i":{"ha":472,"x_min":0,"x_max":0,"o":"m 142 1 l 335 15 b 368 58 357 17 368 31 l 368 950 b 328 986 368 978 356 988 l 142 972 b 104 936 115 971 104 960 l 104 39 b 142 1 104 13 115 0 "},"J":{"ha":693,"x_min":0,"x_max":0,"o":"m 265 0 b 51 44 199 0 132 14 b 31 90 31 53 24 67 l 79 257 b 128 276 86 279 101 285 b 231 254 172 261 204 254 b 365 513 324 254 365 335 l 365 724 l 174 711 b 135 747 147 710 135 721 l 135 918 b 169 958 135 944 146 957 l 585 986 b 624 950 611 988 624 976 l 624 447 b 265 0 624 140 513 0 "},"j":{"ha":693,"x_min":0,"x_max":0,"o":"m 265 0 b 624 447 513 0 624 140 l 624 950 b 585 986 624 976 611 988 l 169 958 b 135 918 146 957 135 944 l 135 747 b 174 711 135 721 147 710 l 365 724 l 365 513 b 231 254 365 335 324 254 b 128 276 204 254 172 261 b 79 257 101 285 86 279 l 31 90 b 51 44 24 67 31 53 b 265 0 132 14 199 0 "},"K":{"ha":876,"x_min":0,"x_max":0,"o":"m 142 1 b 104 39 115 -1 104 11 l 104 936 b 142 972 104 960 115 971 l 322 986 b 363 950 350 989 363 978 l 363 640 l 369 640 l 592 946 b 647 956 607 967 625 969 l 792 865 b 803 811 815 850 819 833 l 538 454 l 538 451 l 835 206 b 838 160 851 192 853 179 l 718 17 b 693 1 710 7 701 1 b 672 10 686 1 679 4 l 371 253 l 363 249 l 363 56 b 329 17 363 31 351 18 l 142 1 "},"k":{"ha":876,"x_min":0,"x_max":0,"o":"m 142 1 l 329 17 b 363 56 351 18 363 31 l 363 249 l 371 253 l 672 10 b 693 1 679 4 686 1 b 718 17 701 1 710 7 l 838 160 b 835 206 853 179 851 192 l 538 451 l 538 454 l 803 811 b 792 865 819 833 815 850 l 647 956 b 592 946 625 969 607 967 l 369 640 l 363 640 l 363 950 b 322 986 363 978 350 989 l 142 972 b 104 936 115 971 104 960 l 104 39 b 142 1 104 11 115 -1 "},"L":{"ha":690,"x_min":0,"x_max":0,"o":"m 142 0 b 104 39 115 -1 104 13 l 104 936 b 142 972 104 960 115 971 l 326 986 b 365 950 354 989 365 978 l 365 254 l 599 265 b 649 228 635 267 650 256 l 640 60 b 597 19 639 33 625 21 l 142 0 "},"l":{"ha":690,"x_min":0,"x_max":0,"o":"m 142 0 l 597 19 b 640 60 625 21 639 33 l 649 228 b 599 265 650 256 635 267 l 365 254 l 365 950 b 326 986 365 978 354 989 l 142 972 b 104 936 115 971 104 960 l 104 39 b 142 0 104 13 115 -1 "},"M":{"ha":1201,"x_min":0,"x_max":0,"o":"m 85 13 b 56 49 65 13 53 31 l 215 929 b 247 958 218 947 232 957 l 442 972 b 474 950 456 974 469 964 l 606 533 l 619 533 l 754 936 b 786 958 758 950 772 957 l 981 972 b 1013 946 996 974 1010 961 l 1146 57 b 1121 25 1149 42 1138 26 l 922 14 b 890 36 907 13 893 22 l 817 460 l 803 460 l 692 89 b 665 69 688 76 676 69 l 521 69 b 493 89 508 69 496 78 l 404 460 l 390 460 l 314 36 b 285 13 311 22 299 13 l 85 13 "},"m":{"ha":1201,"x_min":0,"x_max":0,"o":"m 85 13 l 285 13 b 314 36 299 13 311 22 l 390 460 l 404 460 l 493 89 b 521 69 496 78 508 69 l 665 69 b 692 89 676 69 688 76 l 803 460 l 817 460 l 890 36 b 922 14 893 22 907 13 l 1121 25 b 1146 57 1138 26 1149 42 l 1013 946 b 981 972 1010 961 996 974 l 786 958 b 754 936 772 957 758 950 l 619 533 l 606 533 l 474 950 b 442 972 469 964 456 974 l 247 958 b 215 929 232 957 218 947 l 56 49 b 85 13 53 31 65 13 "},"N":{"ha":1022,"x_min":0,"x_max":0,"o":"m 139 3 b 104 36 115 1 104 13 l 104 932 b 133 967 104 954 114 965 l 319 983 b 368 964 342 985 360 978 l 649 538 l 660 540 l 660 929 b 696 971 660 956 671 969 l 882 985 b 918 954 907 986 918 976 l 918 75 b 892 39 918 53 910 40 l 722 25 b 671 42 696 22 681 25 l 376 508 l 365 506 l 365 51 b 335 15 365 28 356 17 l 139 3 "},"n":{"ha":1022,"x_min":0,"x_max":0,"o":"m 139 3 l 335 15 b 365 51 356 17 365 28 l 365 506 l 376 508 l 671 42 b 722 25 681 25 696 22 l 892 39 b 918 75 910 40 918 53 l 918 954 b 882 985 918 976 907 986 l 696 971 b 660 929 671 969 660 956 l 660 540 l 649 538 l 368 964 b 319 983 360 978 342 985 l 133 967 b 104 932 114 965 104 954 l 104 36 b 139 3 104 13 115 1 "},"Ñ":{"ha":1022,"x_min":0,"x_max":0,"o":"m 604 1086 b 386 1131 525 1086 447 1131 b 231 1088 307 1131 265 1088 b 203 1111 218 1088 208 1094 l 165 1218 b 161 1240 163 1226 161 1233 b 183 1275 161 1254 168 1264 b 354 1333 231 1310 294 1333 b 572 1289 436 1333 508 1289 b 728 1332 651 1289 693 1332 b 756 1308 740 1332 750 1325 l 793 1201 b 797 1179 796 1193 797 1186 b 775 1144 797 1165 790 1156 b 604 1086 728 1110 664 1086 m 139 3 b 104 36 115 1 104 13 l 104 932 b 133 967 104 954 114 965 l 319 983 b 368 964 342 985 360 978 l 649 538 l 660 540 l 660 929 b 696 971 660 956 671 969 l 882 985 b 918 954 907 986 918 976 l 918 75 b 892 39 918 53 910 40 l 722 25 b 671 42 696 22 681 25 l 376 508 l 365 506 l 365 51 b 335 15 365 28 356 17 l 139 3 "},"ñ":{"ha":1022,"x_min":0,"x_max":0,"o":"m 604 1086 b 775 1144 664 1086 728 1110 b 797 1179 790 1156 797 1165 b 793 1201 797 1186 796 1193 l 756 1308 b 728 1332 750 1325 740 1332 b 572 1289 693 1332 651 1289 b 354 1333 508 1289 436 1333 b 183 1275 294 1333 231 1310 b 161 1240 168 1264 161 1254 b 165 1218 161 1233 163 1226 l 203 1111 b 231 1088 208 1094 218 1088 b 386 1131 265 1088 307 1131 b 604 1086 447 1131 525 1086 m 139 3 l 335 15 b 365 51 356 17 365 28 l 365 506 l 376 508 l 671 42 b 722 25 681 25 696 22 l 892 39 b 918 75 910 40 918 53 l 918 954 b 882 985 918 976 907 986 l 696 971 b 660 929 671 969 660 956 l 660 540 l 649 538 l 368 964 b 319 983 360 978 342 985 l 133 967 b 104 932 114 965 104 954 l 104 36 b 139 3 104 13 115 1 "},"O":{"ha":1043,"x_min":0,"x_max":0,"o":"m 517 0 b 56 492 247 0 56 204 b 517 986 56 782 247 986 b 988 492 792 986 988 782 b 517 0 988 204 792 0 m 522 276 b 722 499 639 276 722 368 b 522 710 722 622 639 710 b 321 499 404 710 321 622 b 522 276 321 368 404 276 "},"o":{"ha":1043,"x_min":0,"x_max":0,"o":"m 517 0 b 988 492 792 0 988 204 b 517 986 988 782 792 986 b 56 492 247 986 56 782 b 517 0 56 204 247 0 m 522 276 b 321 499 404 276 321 368 b 522 710 321 622 404 710 b 722 499 639 710 722 622 b 522 276 722 368 639 276 "},"P":{"ha":821,"x_min":0,"x_max":0,"o":"m 135 0 b 104 32 114 -1 104 8 l 104 874 b 133 926 104 900 111 914 b 407 986 189 956 296 986 b 765 686 613 986 765 882 b 365 222 765 476 533 304 l 365 54 b 332 14 365 26 354 15 l 135 0 m 381 485 b 503 690 450 536 503 624 b 417 769 503 735 481 769 b 375 764 393 769 386 768 b 360 740 365 760 360 754 l 360 496 b 381 485 360 481 369 476 "},"p":{"ha":821,"x_min":0,"x_max":0,"o":"m 135 0 l 332 14 b 365 54 354 15 365 26 l 365 222 b 765 686 533 304 765 476 b 407 986 765 882 613 986 b 133 926 296 986 189 956 b 104 874 111 914 104 900 l 104 32 b 135 0 104 8 114 -1 m 381 485 b 360 496 369 476 360 481 l 360 740 b 375 764 360 754 365 760 b 417 769 386 768 393 769 b 503 690 481 769 503 735 b 381 485 503 624 450 536 "},"Q":{"ha":1043,"x_min":0,"x_max":0,"o":"m 729 -153 b 681 -133 706 -162 694 -158 b 600 7 656 -87 628 -39 b 517 0 574 3 546 0 b 56 492 247 0 56 204 b 517 986 56 782 247 986 b 988 492 792 986 988 782 b 833 119 988 338 928 207 b 915 -29 863 69 892 21 b 903 -79 925 -49 922 -71 l 729 -153 m 522 276 b 722 499 639 276 722 368 b 522 710 722 622 639 710 b 321 499 404 710 321 622 b 522 276 321 368 404 276 "},"q":{"ha":1043,"x_min":0,"x_max":0,"o":"m 729 -153 l 903 -79 b 915 -29 922 -71 925 -49 b 833 119 892 21 863 69 b 988 492 928 207 988 338 b 517 986 988 782 792 986 b 56 492 247 986 56 782 b 517 0 56 204 247 0 b 600 7 546 0 574 3 b 681 -133 628 -39 656 -87 b 729 -153 694 -158 706 -162 m 522 276 b 321 499 404 276 321 368 b 522 710 321 622 404 710 b 722 499 639 710 722 622 b 522 276 722 368 639 276 "},"R":{"ha":882,"x_min":0,"x_max":0,"o":"m 135 0 b 104 32 114 -1 104 8 l 104 874 b 131 925 104 900 111 913 b 407 986 189 956 296 986 b 765 686 644 986 765 856 b 601 390 765 589 714 481 l 601 383 b 842 225 679 331 768 268 b 854 179 861 214 867 200 l 757 19 b 704 8 744 -1 728 -7 b 372 253 600 76 469 175 l 365 250 l 365 47 b 332 14 365 26 354 15 l 135 0 m 381 485 b 503 690 450 536 503 624 b 417 769 503 735 481 769 b 375 764 393 769 386 768 b 360 740 365 760 360 754 l 360 496 b 381 485 360 481 369 476 "},"r":{"ha":882,"x_min":0,"x_max":0,"o":"m 135 0 l 332 14 b 365 47 354 15 365 26 l 365 250 l 372 253 b 704 8 469 175 600 76 b 757 19 728 -7 744 -1 l 854 179 b 842 225 867 200 861 214 b 601 383 768 268 679 331 l 601 390 b 765 686 714 481 765 589 b 407 986 765 856 644 986 b 131 925 296 986 189 956 b 104 874 111 913 104 900 l 104 32 b 135 0 104 8 114 -1 m 381 485 b 360 496 369 476 360 481 l 360 740 b 375 764 360 754 365 760 b 417 769 386 768 393 769 b 503 690 481 769 503 735 b 381 485 503 624 450 536 "},"S":{"ha":636,"x_min":0,"x_max":0,"o":"m 247 0 b 117 15 208 0 156 4 b 83 58 92 22 81 35 l 100 229 b 135 261 103 253 113 264 b 174 260 149 260 161 260 b 279 349 242 260 281 292 b 189 518 278 393 233 451 b 107 735 147 583 108 657 b 396 989 103 869 201 986 b 538 976 449 990 499 985 b 567 942 558 971 568 960 l 553 781 b 524 749 551 758 542 749 l 469 750 b 376 678 399 750 378 719 b 464 528 376 628 418 583 b 560 293 522 454 558 385 b 247 0 563 108 388 0 "},"s":{"ha":636,"x_min":0,"x_max":0,"o":"m 247 0 b 560 293 388 0 563 108 b 464 528 558 385 522 454 b 376 678 418 583 376 628 b 469 750 378 719 399 750 l 524 749 b 553 781 542 749 551 758 l 567 942 b 538 976 568 960 558 971 b 396 989 499 985 449 990 b 107 735 201 986 103 869 b 189 518 108 657 147 583 b 279 349 233 451 278 393 b 174 260 281 292 242 260 b 135 261 161 260 149 260 b 100 229 113 264 103 253 l 83 58 b 117 15 81 35 92 22 b 247 0 156 4 208 0 "},"T":{"ha":868,"x_min":0,"x_max":0,"o":"m 339 0 b 304 36 315 0 304 11 l 304 711 l 85 696 b 49 729 60 694 49 704 l 49 906 b 83 942 49 929 60 940 l 783 989 b 819 961 808 990 819 982 l 819 781 b 788 746 819 758 811 749 l 565 725 l 565 36 b 532 0 565 11 554 0 l 339 0 "},"t":{"ha":868,"x_min":0,"x_max":0,"o":"m 339 0 l 532 0 b 565 36 554 0 565 11 l 565 725 l 788 746 b 819 781 811 749 819 758 l 819 961 b 783 989 819 982 808 990 l 83 942 b 49 906 60 940 49 929 l 49 729 b 85 696 49 704 60 694 l 304 711 l 304 36 b 339 0 304 11 315 0 "},"U":{"ha":929,"x_min":0,"x_max":0,"o":"m 474 0 b 83 407 206 0 83 128 l 83 932 b 121 972 83 958 94 971 l 307 986 b 344 953 333 988 344 976 l 344 415 b 464 258 344 299 375 258 b 585 415 554 258 585 299 l 583 931 b 615 971 583 957 593 969 l 808 986 b 844 956 833 988 844 979 l 846 407 b 474 0 847 128 731 0 "},"u":{"ha":929,"x_min":0,"x_max":0,"o":"m 474 0 b 846 407 731 0 847 128 l 844 956 b 808 986 844 979 833 988 l 615 971 b 583 931 593 969 583 957 l 585 415 b 464 258 585 299 554 258 b 344 415 375 258 344 299 l 344 953 b 307 986 344 976 333 988 l 121 972 b 83 932 94 971 83 958 l 83 407 b 474 0 83 128 206 0 "},"V":{"ha":939,"x_min":0,"x_max":0,"o":"m 342 3 b 288 40 311 1 296 10 l 57 921 b 86 964 51 944 60 961 l 279 983 b 319 957 301 986 314 978 l 481 308 l 499 308 l 619 961 b 658 982 622 978 642 983 l 864 965 b 883 928 879 964 886 943 l 686 60 b 640 18 679 32 667 19 l 342 3 "},"v":{"ha":939,"x_min":0,"x_max":0,"o":"m 342 3 l 640 18 b 686 60 667 19 679 32 l 883 928 b 864 965 886 943 879 964 l 658 982 b 619 961 642 983 622 978 l 499 308 l 481 308 l 319 957 b 279 983 314 978 301 986 l 86 964 b 57 921 60 961 51 944 l 288 40 b 342 3 296 10 311 1 "},"W":{"ha":1282,"x_min":0,"x_max":0,"o":"m 293 1 b 250 38 269 0 256 11 l 64 917 b 94 963 58 943 69 960 l 294 983 b 333 958 317 986 329 978 l 429 490 l 449 490 l 535 844 b 568 871 539 863 549 871 l 724 871 b 757 846 742 871 753 863 l 844 490 l 864 490 l 953 954 b 989 981 957 975 968 983 l 1192 958 b 1224 913 1221 956 1231 942 l 1035 54 b 996 15 1029 26 1017 17 l 794 1 b 756 28 775 0 761 8 l 657 379 l 642 379 l 529 51 b 476 14 519 25 506 15 l 293 1 "},"w":{"ha":1282,"x_min":0,"x_max":0,"o":"m 293 1 l 476 14 b 529 51 506 15 519 25 l 642 379 l 657 379 l 756 28 b 794 1 761 8 775 0 l 996 15 b 1035 54 1017 17 1029 26 l 1224 913 b 1192 958 1231 942 1221 956 l 989 981 b 953 954 968 983 957 975 l 864 490 l 844 490 l 757 846 b 724 871 753 863 742 871 l 568 871 b 535 844 549 871 539 863 l 449 490 l 429 490 l 333 958 b 294 983 329 978 317 986 l 94 963 b 64 917 69 960 58 943 l 250 38 b 293 1 256 11 269 0 "},"X":{"ha":936,"x_min":0,"x_max":0,"o":"m 229 -1 b 197 13 219 -1 208 4 l 63 121 b 42 154 49 132 42 143 b 56 186 42 164 47 175 l 299 488 l 299 496 l 57 797 b 44 828 49 808 44 818 b 65 863 44 839 51 851 l 199 974 b 229 988 210 983 219 988 b 264 965 242 988 253 981 l 464 701 l 472 701 l 672 965 b 706 986 683 979 694 986 b 738 972 715 986 726 982 l 872 864 b 893 828 886 853 893 840 b 881 799 893 818 889 808 l 638 496 l 638 488 l 881 186 b 894 156 890 175 894 165 b 872 121 894 143 888 132 l 736 13 b 706 0 725 4 715 0 b 671 21 693 0 682 7 l 472 275 l 464 275 l 263 19 b 229 -1 251 6 240 -1 "},"x":{"ha":936,"x_min":0,"x_max":0,"o":"m 229 -1 b 263 19 240 -1 251 6 l 464 275 l 472 275 l 671 21 b 706 0 682 7 693 0 b 736 13 715 0 725 4 l 872 121 b 894 156 888 132 894 143 b 881 186 894 165 890 175 l 638 488 l 638 496 l 881 799 b 893 828 889 808 893 818 b 872 864 893 840 886 853 l 738 972 b 706 986 726 982 715 986 b 672 965 694 986 683 979 l 472 701 l 464 701 l 264 965 b 229 988 253 981 242 988 b 199 974 219 988 210 983 l 65 863 b 44 828 51 851 44 839 b 57 797 44 818 49 808 l 299 496 l 299 488 l 56 186 b 42 154 47 175 42 164 b 63 121 42 143 49 132 l 197 13 b 229 -1 208 4 219 -1 "},"Y":{"ha":878,"x_min":0,"x_max":0,"o":"m 354 1 b 317 39 328 0 317 13 l 318 339 l 35 856 b 50 907 21 881 26 897 l 226 982 b 272 969 250 992 264 988 l 439 632 l 450 632 l 593 960 b 642 983 603 983 618 990 l 821 928 b 846 883 849 919 857 906 l 582 339 l 581 58 b 547 15 581 31 569 17 l 354 1 "},"y":{"ha":878,"x_min":0,"x_max":0,"o":"m 354 1 l 547 15 b 581 58 569 17 581 31 l 582 339 l 846 883 b 821 928 857 906 849 919 l 642 983 b 593 960 618 990 603 983 l 450 632 l 439 632 l 272 969 b 226 982 264 988 250 992 l 50 907 b 35 856 26 897 21 881 l 318 339 l 317 39 b 354 1 317 13 328 0 "},"Z":{"ha":797,"x_min":0,"x_max":0,"o":"m 104 1 b 69 43 79 1 68 14 l 74 200 b 93 261 75 226 78 239 l 421 724 l 415 732 l 117 724 b 85 756 94 724 85 733 l 90 933 b 126 969 92 958 103 969 l 690 983 b 726 946 717 983 728 972 l 718 776 b 699 725 717 758 710 742 l 386 265 l 390 257 l 682 267 b 728 229 714 268 728 256 l 725 61 b 685 17 725 31 713 18 l 104 1 "},"z":{"ha":797,"x_min":0,"x_max":0,"o":"m 104 1 l 685 17 b 725 61 713 18 725 31 l 728 229 b 682 267 728 256 714 268 l 390 257 l 386 265 l 699 725 b 718 776 710 742 717 758 l 726 946 b 690 983 728 972 717 983 l 126 969 b 90 933 103 969 92 958 l 85 756 b 117 724 85 733 94 724 l 415 732 l 421 724 l 93 261 b 74 200 78 239 75 226 l 69 43 b 104 1 68 14 79 1 "},".":{"ha":451,"x_min":0,"x_max":0,"o":"m 225 0 b 104 119 121 0 103 22 b 231 236 106 211 126 236 b 347 118 329 236 347 211 b 225 0 347 22 326 0 "},",":{"ha":444,"x_min":0,"x_max":0,"o":"m 131 -221 b 97 -161 106 -217 89 -200 l 126 -29 l 103 154 b 139 221 99 186 111 210 b 300 240 189 239 246 246 b 343 188 324 238 339 219 b 282 -167 357 71 358 -39 b 224 -214 267 -193 249 -210 b 131 -221 192 -221 156 -224 "},":":{"ha":451,"x_min":0,"x_max":0,"o":"m 225 0 b 104 119 121 0 103 22 b 231 236 106 211 126 236 b 347 118 329 236 347 211 b 225 0 347 22 326 0 m 225 472 b 104 592 121 472 103 494 b 231 708 106 683 126 708 b 347 590 329 708 347 683 b 225 472 347 494 326 472 "},";":{"ha":444,"x_min":0,"x_max":0,"o":"m 131 -221 b 97 -161 106 -217 89 -200 l 126 -29 l 103 154 b 139 221 99 186 111 210 b 300 240 189 239 246 246 b 343 188 324 238 339 219 b 282 -167 357 71 358 -39 b 224 -214 267 -193 249 -210 b 131 -221 192 -221 156 -224 m 225 472 b 104 592 121 472 103 494 b 231 708 106 683 126 708 b 347 590 329 708 347 683 b 225 472 347 494 326 472 "},"…":{"ha":1061,"x_min":0,"x_max":0,"o":"m 529 0 b 413 115 428 0 411 22 b 535 229 414 206 433 229 b 649 115 631 229 649 206 b 529 0 649 22 628 0 m 838 0 b 721 115 736 0 719 22 b 843 229 722 206 742 229 b 957 115 939 229 957 206 b 838 0 957 22 936 0 m 221 0 b 104 115 119 0 103 22 b 226 229 106 206 125 229 b 340 115 322 229 340 206 b 221 0 340 22 319 0 "},"?":{"ha":675,"x_min":0,"x_max":0,"o":"m 171 331 b 146 375 140 333 136 351 b 331 674 213 535 331 572 b 207 775 331 739 286 775 b 149 769 178 775 168 772 b 104 788 138 768 111 760 l 71 935 b 94 971 67 953 78 965 b 265 986 125 979 182 986 b 578 707 478 986 578 851 b 379 339 578 569 439 456 b 347 317 371 325 368 315 l 171 331 m 240 0 b 119 119 136 0 118 22 b 246 236 121 211 142 236 b 363 118 344 236 363 211 b 240 0 363 22 342 0 "},"¿":{"ha":675,"x_min":0,"x_max":0,"o":"m 504 379 b 529 335 535 376 539 358 b 344 36 463 175 344 138 b 468 -65 344 -29 389 -65 b 526 -60 497 -65 507 -62 b 571 -78 538 -58 564 -50 l 604 -225 b 581 -261 608 -243 597 -256 b 410 -276 550 -269 493 -276 b 97 3 197 -276 97 -142 b 296 371 97 140 236 254 b 328 393 304 385 307 394 l 504 379 m 435 710 b 556 590 539 710 557 688 b 429 474 554 499 533 474 b 313 592 331 474 313 499 b 435 710 313 688 333 710 "},"!":{"ha":486,"x_min":0,"x_max":0,"o":"m 167 336 b 119 383 132 336 119 347 b 114 943 119 426 114 906 b 164 985 114 943 110 986 l 326 979 b 375 926 360 978 378 969 b 346 382 368 847 349 421 b 308 336 344 356 338 336 l 167 336 m 232 0 b 111 119 128 0 110 22 b 238 236 113 211 133 236 b 354 118 336 236 354 211 b 232 0 354 22 333 0 "},"¡":{"ha":486,"x_min":0,"x_max":0,"o":"m 319 372 b 367 325 354 372 367 361 b 372 -235 367 282 372 -197 b 322 -276 372 -235 376 -278 l 160 -271 b 111 -218 126 -269 108 -261 b 140 326 118 -139 138 288 b 178 372 142 353 149 372 l 319 372 m 254 708 b 375 589 358 708 376 686 b 249 472 374 497 353 472 b 132 590 150 472 132 497 b 254 708 132 686 153 708 "},"·":{"ha":451,"x_min":0,"x_max":0,"o":"m 225 375 b 104 494 121 375 103 397 b 231 611 106 586 126 611 b 347 493 329 611 347 586 b 225 375 347 397 326 375 "},"•":{"ha":554,"x_min":0,"x_max":0,"o":"m 276 332 b 111 494 135 332 110 363 b 283 654 114 619 142 654 b 443 493 418 654 443 619 b 276 332 443 363 414 332 "},"*":{"ha":764,"x_min":0,"x_max":0,"o":"m 336 424 b 303 460 314 422 303 435 l 306 569 l 303 571 l 218 515 b 171 524 199 503 183 506 l 118 604 b 128 650 106 624 110 639 l 224 704 l 224 707 l 129 760 b 118 800 113 769 108 783 l 165 889 b 206 901 175 907 189 911 l 304 839 l 307 840 l 301 947 b 328 978 300 967 310 976 l 433 983 b 463 956 453 985 463 975 l 460 840 l 463 839 l 549 893 b 594 885 565 903 582 901 l 646 811 b 635 764 658 792 654 775 l 543 707 l 543 704 l 635 653 b 644 610 651 643 653 628 l 606 521 b 561 513 599 504 581 501 l 464 567 l 461 565 l 464 471 b 435 431 465 446 454 432 l 336 424 "},"#":{"ha":1246,"x_min":0,"x_max":0,"o":"m 681 7 b 639 61 646 6 633 24 l 660 201 l 483 201 l 461 60 b 407 13 457 31 438 14 l 264 8 b 222 63 229 7 217 25 l 243 201 l 126 201 b 85 250 94 201 79 218 l 103 357 b 158 403 108 386 128 403 l 274 403 l 301 581 l 168 581 b 126 629 136 581 121 597 l 144 736 b 200 782 150 765 169 782 l 332 782 l 354 929 b 403 971 358 957 376 969 l 556 978 b 594 935 590 979 599 964 l 571 782 l 749 782 l 771 928 b 819 969 775 956 793 968 l 974 978 b 1011 935 1007 979 1015 964 l 988 782 l 1113 782 b 1161 735 1150 782 1167 765 l 1143 628 b 1081 581 1138 597 1115 581 l 957 581 l 931 403 l 1071 403 b 1119 356 1108 403 1125 386 l 1101 249 b 1039 201 1096 218 1074 201 l 900 201 l 878 60 b 824 13 874 31 854 14 l 681 7 m 690 403 l 718 581 l 540 581 l 514 403 "},"/":{"ha":622,"x_min":0,"x_max":0,"o":"m 90 -176 b 28 -101 33 -181 14 -157 b 304 974 139 346 263 808 b 375 1031 314 1010 336 1029 l 510 1033 b 564 974 558 1035 575 1017 b 296 -100 454 554 369 217 b 224 -167 285 -143 263 -164 l 90 -176 "},"\\":{"ha":638,"x_min":0,"x_max":0,"o":"m 379 -154 b 304 -87 339 -150 313 -126 b 86 969 208 351 161 581 b 140 1032 76 1011 96 1033 l 265 1026 b 333 968 304 1025 324 1007 b 565 -104 343 925 547 -26 b 503 -168 575 -151 553 -174 l 379 -154 "},"(":{"ha":535,"x_min":0,"x_max":0,"o":"m 365 -151 b 300 -131 340 -160 318 -153 b 97 490 169 36 97 226 b 300 1111 97 754 169 944 b 365 1132 318 1133 340 1140 l 439 1108 b 460 1047 465 1100 472 1078 b 336 490 385 872 336 700 b 460 -67 336 281 385 108 b 439 -128 472 -97 465 -118 l 365 -151 "},")":{"ha":535,"x_min":0,"x_max":0,"o":"m 96 -128 b 75 -67 69 -118 63 -97 b 199 490 150 108 199 281 b 75 1047 199 700 150 872 b 96 1108 63 1078 69 1100 l 169 1132 b 235 1111 194 1140 217 1133 b 438 490 365 944 438 754 b 235 -131 438 226 365 36 b 169 -151 217 -153 194 -160 l 96 -128 "},"{":{"ha":679,"x_min":0,"x_max":0,"o":"m 279 -124 b 217 -51 240 -118 218 -92 l 204 365 b 179 422 204 386 197 410 l 124 464 b 111 488 115 469 111 479 b 124 511 111 496 115 506 l 179 553 b 204 610 197 565 204 589 l 217 1026 b 279 1099 218 1067 240 1093 l 544 1136 b 596 1096 578 1140 596 1126 l 596 994 b 560 932 596 956 585 936 l 496 922 b 449 864 467 918 450 897 l 442 608 b 421 553 442 585 435 565 l 378 511 b 365 488 369 504 365 496 b 378 464 365 481 369 472 l 421 422 b 442 367 435 410 442 390 l 449 111 b 496 53 450 78 467 57 l 560 43 b 596 -19 585 39 596 19 l 596 -121 b 544 -161 596 -151 578 -165 l 279 -124 "},"}":{"ha":679,"x_min":0,"x_max":0,"o":"m 135 -161 b 83 -121 101 -165 83 -151 l 83 -19 b 119 43 83 19 94 39 l 183 53 b 231 111 213 57 229 78 l 238 367 b 258 422 238 390 244 410 l 301 464 b 314 488 310 472 314 481 b 301 511 314 496 310 504 l 258 553 b 238 608 244 565 238 585 l 231 864 b 183 922 229 897 213 918 l 119 932 b 83 994 94 936 83 956 l 83 1096 b 135 1136 83 1126 101 1140 l 400 1099 b 463 1026 439 1093 461 1067 l 475 610 b 500 553 475 589 482 565 l 556 511 b 568 488 564 506 568 496 b 556 464 568 479 564 469 l 500 422 b 475 365 482 410 475 386 l 463 -51 b 400 -124 461 -92 439 -118 l 135 -161 "},"[":{"ha":651,"x_min":0,"x_max":0,"o":"m 186 -118 b 125 -46 146 -112 126 -87 b 125 1026 106 393 106 601 b 186 1099 126 1068 146 1093 l 503 1139 b 554 1099 536 1143 554 1129 l 554 965 b 510 919 554 939 539 922 l 418 910 b 356 844 374 906 357 889 b 356 136 346 601 346 376 b 418 71 357 92 374 75 l 510 61 b 554 15 539 58 554 42 l 554 -118 b 503 -158 554 -149 536 -162 l 186 -118 "},"]":{"ha":651,"x_min":0,"x_max":0,"o":"m 149 -158 b 97 -118 115 -162 97 -149 l 97 15 b 142 61 97 42 113 58 l 233 71 b 296 136 278 75 294 92 b 296 844 306 376 306 601 b 233 910 294 889 278 906 l 142 919 b 97 965 113 922 97 939 l 97 1099 b 149 1139 97 1129 115 1143 l 465 1099 b 526 1026 506 1093 525 1068 b 526 -46 546 601 546 393 b 465 -118 525 -87 506 -112 l 149 -158 "},"-":{"ha":735,"x_min":0,"x_max":0,"o":"m 136 349 b 108 378 122 349 108 354 l 104 561 b 129 583 104 575 111 583 l 606 601 b 629 572 621 601 629 588 l 631 400 b 601 368 631 385 625 369 l 136 349 "},"–":{"ha":957,"x_min":0,"x_max":0,"o":"m 136 349 b 108 378 122 349 108 354 l 104 561 b 129 583 104 575 111 583 l 828 601 b 851 572 843 601 851 588 l 853 400 b 824 368 853 385 847 368 l 136 349 "},"—":{"ha":1186,"x_min":0,"x_max":0,"o":"m 136 349 b 108 378 122 349 108 354 l 104 561 b 129 583 104 575 111 583 l 1057 601 b 1081 572 1072 601 1081 588 l 1082 400 b 1053 368 1082 385 1076 368 l 136 349 "},"_":{"ha":888,"x_min":0,"x_max":0,"o":"m 129 -25 b 101 4 110 -25 101 -15 l 97 188 b 122 210 97 203 106 210 l 765 228 b 789 199 782 228 789 218 l 790 26 b 761 -6 790 6 781 -4 l 129 -25 "},"'":{"ha":444,"x_min":0,"x_max":0,"o":"m 131 525 b 97 585 106 529 89 546 l 126 717 l 103 900 b 139 967 99 932 111 956 b 300 986 189 985 246 992 b 343 933 324 983 339 965 b 282 579 357 817 358 707 b 224 532 267 553 249 536 b 131 525 192 525 156 522 "},"”":{"ha":800,"x_min":0,"x_max":0,"o":"m 131 526 b 97 586 106 531 89 547 l 126 718 l 103 901 b 139 968 99 933 111 957 b 300 988 189 986 246 993 b 343 935 324 985 339 967 b 282 581 357 818 358 708 b 224 533 267 554 249 538 b 131 526 192 526 156 524 m 486 526 b 453 586 461 531 444 547 l 482 718 l 458 901 b 494 968 454 933 467 957 b 656 988 544 986 601 993 b 699 935 679 985 694 967 b 638 581 713 818 714 708 b 579 533 622 554 604 538 b 486 526 547 526 511 524 "},"“":{"ha":800,"x_min":0,"x_max":0,"o":"m 669 971 b 703 911 694 967 711 950 l 674 779 l 697 596 b 661 529 701 564 689 540 b 500 510 611 511 554 504 b 457 563 476 513 461 531 b 518 917 443 679 442 789 b 576 964 533 943 551 960 b 669 971 608 971 644 974 m 314 971 b 347 911 339 967 356 950 l 318 779 l 342 596 b 306 529 346 564 333 540 b 144 510 256 511 199 504 b 101 563 121 513 106 531 b 163 917 88 679 86 789 b 221 964 178 943 196 960 b 314 971 253 971 289 974 "},"«":{"ha":1065,"x_min":0,"x_max":0,"o":"m 578 340 b 542 392 568 349 546 367 b 543 504 536 429 538 469 b 583 551 546 524 571 542 l 858 771 b 906 771 874 783 893 786 l 979 683 b 971 635 994 665 992 651 l 736 447 l 736 439 l 971 251 b 979 203 992 235 994 221 l 906 115 b 858 115 893 100 874 103 l 578 340 m 131 340 b 94 392 121 349 99 367 b 96 504 89 429 90 469 b 136 551 99 524 124 542 l 411 771 b 458 771 426 783 446 786 l 532 683 b 524 635 547 665 544 651 l 289 447 l 289 439 l 524 251 b 532 203 544 235 547 221 l 458 115 b 411 115 446 100 426 103 l 131 340 "},"»":{"ha":1065,"x_min":0,"x_max":0,"o":"m 207 115 b 160 115 192 103 172 100 l 86 203 b 94 251 71 221 74 235 l 329 439 l 329 447 l 94 635 b 86 683 74 651 71 665 l 160 771 b 207 771 172 786 192 783 l 482 551 b 522 504 494 542 519 524 b 524 392 528 469 529 429 b 488 340 519 367 497 349 l 207 115 m 654 115 b 607 115 639 103 619 100 l 533 203 b 542 251 518 221 521 235 l 776 439 l 776 447 l 542 635 b 533 683 521 651 518 665 l 607 771 b 654 771 619 786 639 783 l 929 551 b 969 504 942 542 967 524 b 971 392 975 469 976 429 b 935 340 967 367 944 349 l 654 115 "},"$":{"ha":708,"x_min":0,"x_max":0,"o":"m 301 -153 b 257 -114 272 -156 258 -146 l 251 1 b 126 3 211 -3 171 -1 b 86 43 101 6 88 19 b 83 219 83 101 82 172 b 132 258 85 246 101 260 b 226 260 161 257 196 256 b 314 335 275 264 314 288 b 228 467 314 375 272 415 b 126 692 179 524 128 593 b 238 921 126 800 158 878 l 233 1063 b 269 1110 232 1088 244 1107 l 392 1125 b 436 1090 414 1128 433 1115 l 447 976 b 538 986 469 981 500 986 b 583 954 563 986 578 979 b 606 790 592 911 600 832 b 571 746 608 764 596 749 b 418 651 471 736 418 710 b 517 497 417 596 468 554 b 611 274 563 444 608 376 b 464 35 615 175 551 68 l 465 -90 b 433 -139 465 -124 454 -136 l 301 -153 "},"€":{"ha":1057,"x_min":0,"x_max":0,"o":"m 697 0 b 256 349 485 0 314 146 l 92 349 b 57 389 64 349 53 361 l 63 433 b 106 468 65 457 79 468 l 235 468 b 233 506 233 481 233 493 l 233 521 l 111 521 b 76 561 83 521 72 533 l 82 606 b 125 640 85 629 99 640 l 250 640 b 697 986 301 849 476 986 b 946 932 793 986 872 971 b 971 881 971 918 979 901 l 914 731 b 857 711 904 704 886 699 b 719 744 813 731 767 744 b 518 640 625 744 556 707 l 753 640 b 790 606 781 640 793 629 l 785 561 b 742 521 781 533 767 521 l 488 521 l 488 506 b 489 468 488 493 488 481 l 733 468 b 767 433 758 468 769 457 l 761 389 b 718 349 757 361 743 349 l 525 349 b 715 250 563 285 628 250 b 889 308 775 250 824 265 b 949 294 915 324 933 319 l 1029 158 b 1014 104 1042 138 1036 121 b 697 0 922 33 824 0 "},"%":{"ha":1161,"x_min":0,"x_max":0,"o":"m 257 0 b 219 61 217 0 203 28 b 671 940 386 388 544 694 b 747 986 686 969 713 986 l 904 986 b 940 931 943 986 957 965 b 497 57 788 628 629 317 b 421 0 478 17 456 0 l 257 0 m 242 632 b 69 806 119 632 67 685 b 251 986 74 932 126 986 b 421 807 369 986 421 932 b 242 632 421 686 367 632 m 914 0 b 740 171 790 0 738 51 b 924 354 746 299 801 354 b 1092 174 1040 354 1092 300 b 914 0 1092 53 1038 0 "},"@":{"ha":1301,"x_min":0,"x_max":0,"o":"m 640 -79 b 97 465 347 -78 97 118 b 676 1049 97 861 407 1049 b 1204 540 975 1049 1204 842 b 965 210 1204 318 1090 210 b 772 343 851 210 794 269 l 769 343 b 579 210 736 269 676 210 b 381 439 444 210 379 325 b 694 774 383 669 532 774 b 836 746 740 774 788 768 b 885 683 867 732 888 714 b 871 522 881 629 878 607 b 949 357 863 429 886 357 b 1049 526 994 357 1049 394 b 681 901 1049 781 894 901 b 253 476 461 901 253 757 b 636 68 253 214 418 68 b 839 106 700 68 768 81 b 886 82 865 115 879 108 l 904 10 b 879 -37 913 -25 906 -28 b 640 -79 799 -65 718 -79 m 599 357 b 704 468 663 357 689 421 b 722 597 718 513 721 551 b 710 617 722 608 718 614 b 656 626 689 625 674 626 b 535 450 576 626 535 542 b 599 357 535 404 556 357 "},"&":{"ha":1103,"x_min":0,"x_max":0,"o":"m 394 0 b 56 288 231 0 53 89 b 222 515 57 376 114 467 l 222 521 b 106 726 146 576 104 647 b 456 986 104 903 265 986 b 786 742 636 986 785 897 b 618 507 788 657 732 567 l 618 500 b 725 424 649 475 688 449 b 815 531 768 468 790 503 b 878 536 833 551 851 556 l 1001 444 b 1011 392 1021 431 1025 413 b 931 292 989 361 963 329 b 1069 210 981 261 1024 238 b 1083 163 1089 199 1094 182 b 996 24 1061 124 1018 54 b 960 0 982 6 972 0 b 925 14 950 0 939 6 b 747 121 879 40 817 76 b 394 0 667 60 581 0 m 411 232 b 531 271 454 231 496 242 b 393 369 471 311 435 338 b 324 299 346 360 324 328 b 411 232 324 265 351 233 m 433 628 b 531 724 482 649 532 685 b 446 782 531 765 488 783 b 372 717 403 781 372 750 b 433 628 372 681 397 657 "},"©":{"ha":1321,"x_min":0,"x_max":0,"o":"m 668 -79 b 97 488 325 -79 97 147 b 668 1047 97 824 325 1047 b 1224 488 1001 1047 1224 824 b 668 -79 1224 147 1001 -79 m 668 63 b 1074 488 911 63 1074 232 b 668 906 1074 739 911 906 b 247 488 415 906 247 739 b 668 63 247 232 415 63 m 682 165 b 368 488 510 165 368 308 b 682 808 368 665 510 808 b 849 758 743 808 800 790 b 856 732 858 753 860 742 l 806 615 b 769 607 800 601 782 599 b 686 639 747 628 718 639 b 549 488 610 639 549 571 b 686 335 549 403 610 335 b 794 390 729 335 768 356 b 825 393 800 400 817 401 l 917 304 b 917 275 925 296 925 285 b 682 165 861 207 776 165 "},"®":{"ha":1028,"x_min":0,"x_max":0,"o":"m 514 213 b 97 613 193 213 97 450 b 514 1033 97 757 193 1033 b 931 613 814 1033 931 829 b 514 213 931 471 814 213 m 514 315 b 817 613 722 315 817 469 b 514 931 817 778 722 931 b 211 613 278 931 211 738 b 514 315 211 479 286 315 m 378 411 b 364 426 368 411 364 415 l 364 810 b 375 833 364 821 367 826 b 501 861 401 847 450 861 b 664 724 610 861 664 801 b 590 589 664 679 640 631 l 590 586 b 699 514 632 553 660 536 b 704 493 708 508 710 503 l 660 421 b 636 415 654 411 647 410 b 485 526 588 442 526 490 l 482 525 l 482 433 b 467 418 482 424 478 418 l 378 411 m 489 632 b 544 726 521 656 544 696 b 506 763 544 746 535 763 b 486 760 494 763 492 761 b 479 749 482 757 479 756 l 479 638 b 489 632 479 631 485 629 "},"™":{"ha":981,"x_min":0,"x_max":0,"o":"m 424 533 b 410 550 414 533 408 542 l 490 967 b 504 979 492 975 497 979 l 600 986 b 614 976 606 986 611 983 l 676 807 l 683 807 l 747 969 b 763 979 750 976 756 979 l 857 986 b 871 974 864 986 869 981 l 940 553 b 928 539 942 546 938 539 l 824 533 b 807 543 815 533 808 538 l 772 717 l 765 717 l 719 568 b 708 558 718 563 713 558 l 639 558 b 626 568 633 558 628 564 l 585 717 l 579 717 l 546 543 b 532 533 544 538 539 533 l 424 533 m 185 533 b 168 549 174 533 168 538 l 168 847 l 69 840 b 53 856 57 839 53 844 l 53 949 b 69 965 53 960 57 964 l 396 986 b 413 974 407 988 413 983 l 413 876 b 397 861 413 865 408 863 l 301 853 l 301 549 b 282 533 301 538 296 533 l 185 533 "},"°":{"ha":546,"x_min":0,"x_max":0,"o":"m 269 521 b 56 751 150 521 56 615 b 269 982 56 888 150 982 b 490 751 390 982 490 888 b 269 521 490 615 390 521 m 274 667 b 350 750 321 667 350 704 b 274 826 350 797 315 826 b 196 750 231 826 196 797 b 274 667 196 704 226 667 "},"+":{"ha":903,"x_min":0,"x_max":0,"o":"m 365 71 b 329 110 340 68 329 81 l 329 324 l 129 318 b 101 347 110 318 101 328 l 97 519 b 122 542 97 535 106 542 l 329 547 l 329 750 b 361 786 329 774 339 785 l 543 803 b 574 768 564 804 574 793 l 574 554 l 781 560 b 804 531 797 560 804 550 l 806 369 b 776 338 806 347 796 338 l 574 332 l 574 132 b 540 86 574 101 563 88 l 365 71 "},"×":{"ha":882,"x_min":0,"x_max":0,"o":"m 124 247 b 122 300 103 265 103 281 l 271 447 l 129 581 b 131 628 114 596 114 611 l 242 740 b 285 744 258 756 271 757 l 431 606 l 569 743 b 624 751 588 761 607 765 l 761 640 b 761 589 781 625 781 608 l 608 438 l 760 296 b 758 256 774 282 774 269 l 649 147 b 594 142 628 129 611 125 l 449 279 l 313 144 b 258 136 294 126 275 124 l 124 247 "},"÷":{"ha":901,"x_min":0,"x_max":0,"o":"m 129 318 b 101 347 110 318 101 328 l 97 517 b 122 539 97 532 106 539 l 779 557 b 803 528 796 557 803 547 l 804 369 b 775 338 804 349 794 339 l 129 318 m 446 -1 b 325 118 342 -1 324 21 b 451 235 326 210 347 235 b 568 117 550 235 568 210 b 446 -1 568 21 547 -1 m 446 642 b 325 761 342 642 324 664 b 451 878 326 853 347 878 b 568 760 550 878 568 853 b 446 642 568 664 547 642 "},"=":{"ha":1151,"x_min":0,"x_max":0,"o":"m 254 469 b 226 499 235 469 226 479 l 222 674 b 247 696 222 689 231 696 l 904 714 b 928 685 921 714 928 704 l 929 521 b 900 489 929 500 919 490 l 254 469 m 254 106 b 226 135 235 106 226 115 l 222 310 b 247 332 222 325 231 332 l 904 350 b 928 321 921 350 928 340 l 929 157 b 900 125 929 136 919 126 l 254 106 "},"→":{"ha":1033,"x_min":0,"x_max":0,"o":"m 576 90 b 515 93 554 69 533 72 l 421 204 b 428 271 399 229 404 253 l 574 382 l 571 390 l 143 364 b 115 393 129 363 115 369 l 111 576 b 136 599 111 590 118 599 l 571 597 l 574 606 l 418 717 b 407 783 393 735 388 758 l 496 900 b 557 906 514 924 535 925 l 889 617 b 933 547 904 604 931 582 b 936 468 936 518 938 489 b 892 381 935 446 922 408 l 576 90 "},"←":{"ha":1033,"x_min":0,"x_max":0,"o":"m 142 381 b 97 468 111 408 99 446 b 100 547 96 489 97 518 b 144 617 103 582 129 604 l 476 906 b 538 900 499 925 519 924 l 626 783 b 615 717 646 758 640 735 l 460 606 l 463 597 l 897 599 b 922 576 915 599 922 590 l 918 393 b 890 364 918 369 904 363 l 463 390 l 460 382 l 606 271 b 613 204 629 253 635 229 l 518 93 b 457 90 500 72 479 69 l 142 381 "},"↑":{"ha":1038,"x_min":0,"x_max":0,"o":"m 926 550 b 924 489 947 528 944 507 l 813 394 b 746 401 788 372 764 378 l 635 547 l 626 544 l 653 117 b 624 89 654 103 647 89 l 440 85 b 418 110 426 85 418 92 l 419 544 l 411 547 l 300 392 b 233 381 282 367 258 361 l 117 469 b 111 531 93 488 92 508 l 400 863 b 469 907 413 878 435 904 b 549 910 499 910 528 911 b 636 865 571 908 608 896 l 926 550 "},"↓":{"ha":1038,"x_min":0,"x_max":0,"o":"m 636 129 b 549 85 608 99 571 86 b 469 88 528 83 499 85 b 400 132 435 90 413 117 l 111 464 b 117 525 92 486 93 507 l 233 614 b 300 603 258 633 282 628 l 411 447 l 419 450 l 418 885 b 440 910 418 903 426 910 l 624 906 b 653 878 647 906 654 892 l 626 450 l 635 447 l 746 593 b 813 600 764 617 788 622 l 924 506 b 926 444 944 488 947 467 l 636 129 "}}}
